<svg width="413" height="100" viewBox="0 0 413 100" fill="none" xmlns="http://www.w3.org/2000/svg">
<path fill-rule="evenodd" clip-rule="evenodd" d="M23.734 5.84608L34.0872 -0.000213623V9.07558H48.9829V20.5229L38.2493 19.4253C45.9348 22.4399 51.1522 28.3332 51.1522 36.2227C51.1522 41.1469 49.0909 45.5527 45.661 49.0079C46.1925 48.9878 46.7274 48.9776 47.2653 48.9776C65.2779 48.9776 79.88 60.3993 79.88 74.4887C79.88 88.5781 65.2779 99.9998 47.2653 99.9998C29.2528 99.9998 14.6507 88.5781 14.6507 74.4887C14.6507 67.5779 18.1638 61.3089 23.8692 56.7148C10.5518 56.1716 0 48.5861 0 36.2227C0 28.1482 5.5032 22.1403 13.5313 19.1954L0.940766 20.5229V9.07558H18.5619L23.734 5.84608ZM14.0771 36.6316C14.0771 43.2137 19.1514 48.5286 25.4124 48.5286C31.6734 48.5286 36.7477 43.2137 36.7477 36.6316C36.7477 30.0494 31.6734 24.7345 25.4124 24.7345C19.1514 24.7345 14.0771 30.0494 14.0771 36.6316ZM62.6097 74.4891C62.6097 82.008 55.7392 88.1032 47.2641 88.1032C38.7889 88.1032 31.9184 82.008 31.9184 74.4891C31.9184 66.9703 38.7889 60.875 47.2641 60.875C55.7392 60.875 62.6097 66.9703 62.6097 74.4891Z" fill="#DE1912"/>
<path d="M68.7484 55.2325H79.5104H79.5927L81.8407 53.0361L94.7334 40.8827V34.5867H85.0589L84.8716 5.84557H68.7484V55.2325Z" fill="#DE1912"/>
<path d="M151.697 5.96814V93.9896L166.592 85.5677V52.1541H174.572V93.1311L188.322 85.5268V6.00906H174.572V37.8859H166.592V5.96814H151.697Z" fill="#DE1912"/>
<path fill-rule="evenodd" clip-rule="evenodd" d="M127.921 17.334H141.876V30.8663L127.448 28.6021C137.65 32.3227 145.15 44.4975 145.15 58.9538C145.15 76.3701 134.265 90.4748 120.883 90.4748C107.502 90.4748 96.6167 76.3701 96.6167 58.9538C96.6167 44.297 104.297 31.9856 114.73 28.4522L99.849 30.8663V17.334H112.331L117.568 14.0639L127.921 8.2176V17.334ZM120.883 75.1027C114.008 75.1027 108.443 67.8664 108.443 58.9538C108.443 50.0413 114.008 42.805 120.883 42.805C127.758 42.805 133.323 50.0413 133.323 58.9538C133.323 67.8664 127.717 75.1027 120.883 75.1027Z" fill="#DE1912"/>
<path d="M342.493 28.4986C342.434 28.5247 342.395 28.5833 342.395 28.6481V58.8201C342.395 67.4608 338.118 71.5672 331.103 71.5672C324.43 71.5672 319.895 67.4608 319.895 58.8201V23.0821C319.895 22.9642 319.774 22.8852 319.666 22.9327L306.219 28.8541C306.16 28.8801 306.122 28.9387 306.122 29.0034V59.3334C306.122 75.0748 316.046 83.0311 331.103 83.0311C345.817 83.0311 355.998 75.0748 355.998 59.3334V22.8122C355.998 22.6944 355.877 22.6154 355.769 22.6628L342.493 28.4986Z" fill="#DE1912"/>
<path d="M412.029 42.2231C412.122 42.2231 412.196 42.1416 412.191 42.0485C411.326 26.0311 397.03 22.8885 389.443 22.8885C376.611 22.8885 364.89 27.7649 364.89 39.9132C364.89 53.3424 376.171 56.1226 385.663 58.4622C392.559 60.1617 398.512 61.6287 398.512 66.7763C398.512 70.7116 394.234 72.5938 389.272 72.5938C383.494 72.5938 377.295 70.3153 376.875 62.6572C376.87 62.57 376.798 62.4987 376.711 62.4987H363.435C363.342 62.4987 363.268 62.58 363.272 62.6727C364.142 80.9057 380.995 83.031 387.818 83.031C404.928 83.031 412.628 74.9036 412.628 64.723C412.628 52.2733 401.504 49.447 392.053 47.0458C385.073 45.2724 379.006 43.7308 379.006 38.7155C379.006 34.609 383.455 33.0691 387.818 33.0691C392.321 33.0691 397.752 34.7567 398.413 42.0704C398.421 42.1551 398.492 42.2231 398.577 42.2231H412.029Z" fill="#DE1912"/>
<path fill-rule="evenodd" clip-rule="evenodd" d="M225.002 81.9186C225.092 81.9186 225.165 81.8455 225.165 81.7554V62.4906C225.165 62.4004 225.238 62.3274 225.329 62.3274H233.378C247.152 62.3274 256.392 55.3977 256.392 42.9072C256.392 30.0746 247.238 23.9149 233.293 23.9149H211.555C211.465 23.9149 211.392 23.9879 211.392 24.0781V81.7554C211.392 81.8455 211.465 81.9186 211.555 81.9186H225.002ZM225.329 51.4624C225.238 51.4624 225.165 51.3893 225.165 51.2992V34.8575C225.165 34.7674 225.238 34.6943 225.329 34.6943H231.325C238.169 34.6943 242.447 36.662 242.447 42.9072C242.447 48.7247 238.426 51.4624 232.266 51.4624H225.329Z" fill="#DE1912"/>
<path d="M264.109 29.2278C264.109 29.1631 264.147 29.1045 264.206 29.0784L277.653 23.1571C277.761 23.1096 277.882 23.1886 277.882 23.3064V70.6337C277.882 70.7239 277.955 70.7969 278.046 70.7969H300.904C300.994 70.7969 301.067 70.87 301.067 70.9601V81.7554C301.067 81.8455 300.994 81.9186 300.904 81.9186H264.272C264.182 81.9186 264.109 81.8455 264.109 81.7554V29.2278Z" fill="#DE1912"/>
</svg>
